<svg width="70" height="70" viewBox="0 0 70 70" fill="none" xmlns="http://www.w3.org/2000/svg">
<path d="M23.4133 56.3639C23.4133 56.6534 23.0887 56.885 22.6794 56.885C22.2137 56.9284 21.8891 56.6968 21.8891 56.3639C21.8891 56.0744 22.2137 55.8428 22.623 55.8428C23.0464 55.7994 23.4133 56.031 23.4133 56.3639ZM19.0242 55.7125C18.9254 56.002 19.2077 56.3349 19.6311 56.4218C19.998 56.5665 20.4214 56.4218 20.506 56.1323C20.5907 55.8428 20.3226 55.5099 19.8992 55.3796C19.5323 55.2783 19.123 55.423 19.0242 55.7125ZM25.2621 55.4665C24.8528 55.5678 24.5706 55.8428 24.6129 56.1757C24.6552 56.4652 25.0222 56.6534 25.4456 56.5521C25.8548 56.4507 26.1371 56.1757 26.0948 55.8862C26.0524 55.6112 25.6714 55.4231 25.2621 55.4665ZM34.5484 0C14.9738 0 0 15.2417 0 35.3179C0 51.3702 9.85081 65.1065 23.9214 69.941C25.7278 70.2739 26.3629 69.1304 26.3629 68.1896C26.3629 67.2922 26.3206 62.3419 26.3206 59.3022C26.3206 59.3022 16.4415 61.4734 14.3669 54.9888C14.3669 54.9888 12.7581 50.7767 10.4435 49.6911C10.4435 49.6911 7.21169 47.4186 10.6694 47.462C10.6694 47.462 14.1835 47.7515 16.1169 51.1965C19.2077 56.7837 24.3871 55.177 26.4052 54.2217C26.7298 51.9057 27.6472 50.2991 28.6633 49.3437C20.7742 48.4463 12.8145 47.2739 12.8145 33.3494C12.8145 29.3689 13.8871 27.3714 16.1452 24.8239C15.7782 23.883 14.5786 20.0038 16.5121 14.9956C19.4617 14.0548 26.25 18.9038 26.25 18.9038C29.0726 18.0932 32.1069 17.6734 35.1129 17.6734C38.119 17.6734 41.1532 18.0932 43.9758 18.9038C43.9758 18.9038 50.7641 14.0403 53.7137 14.9956C55.6472 20.0183 54.4476 23.883 54.0806 24.8239C56.3387 27.3858 57.7218 29.3833 57.7218 33.3494C57.7218 47.3173 49.4093 48.4318 41.5202 49.3437C42.8186 50.4872 43.9194 52.6584 43.9194 56.0599C43.9194 60.9379 43.877 66.9737 43.877 68.1607C43.877 69.1015 44.5262 70.245 46.3186 69.9121C60.4315 65.1065 70 51.3702 70 35.3179C70 15.2417 54.123 0 34.5484 0ZM13.7177 49.9227C13.5343 50.0675 13.5766 50.4004 13.8165 50.6754C14.0423 50.907 14.3669 51.0083 14.5504 50.8201C14.7339 50.6754 14.6915 50.3425 14.4516 50.0675C14.2258 49.8359 13.9012 49.7346 13.7177 49.9227ZM12.1935 48.7503C12.0948 48.9384 12.2359 49.17 12.5181 49.3148C12.744 49.4595 13.0262 49.4161 13.125 49.2135C13.2238 49.0253 13.0827 48.7937 12.8004 48.649C12.5181 48.5621 12.2923 48.6055 12.1935 48.7503ZM16.7661 53.9032C16.5403 54.0914 16.625 54.5256 16.9496 54.8006C17.2742 55.1336 17.6835 55.177 17.8669 54.9454C18.0504 54.7572 17.9657 54.323 17.6835 54.048C17.373 53.7151 16.9496 53.6716 16.7661 53.9032ZM15.1573 51.7755C14.9315 51.9202 14.9315 52.2966 15.1573 52.6295C15.3831 52.9624 15.7641 53.1071 15.9476 52.9624C16.1734 52.7742 16.1734 52.3979 15.9476 52.065C15.75 51.732 15.3831 51.5873 15.1573 51.7755Z" fill="white"/>
</svg>
