<svg width="70" height="70" viewBox="0 0 70 70" fill="none" xmlns="http://www.w3.org/2000/svg">
<g clip-path="url(#clip0_8_168)">
<path d="M35 0C15.6699 0 6.10352e-05 15.6699 6.10352e-05 34.9999C6.10352e-05 54.33 15.6699 69.9999 35 69.9999C54.33 69.9999 70.0001 54.33 70.0001 34.9999C69.9999 15.6699 54.3298 0 35 0ZM25.6619 51.9208H17.9774V27.0941H25.6619V51.9208ZM21.783 23.8428C19.2733 23.8428 17.2388 21.7917 17.2388 19.2619C17.2388 16.7318 19.2736 14.6808 21.783 14.6808C24.2925 14.6808 26.327 16.7318 26.327 19.2619C26.3272 21.7918 24.2926 23.8428 21.783 23.8428ZM54.4599 51.9208H46.8126V38.8888C46.8126 35.3145 45.4549 33.3193 42.6286 33.3193C39.5527 33.3193 37.9458 35.3973 37.9458 38.8888V51.9208H30.5754V27.0941H37.9458V30.4378C37.9458 30.4378 40.1628 26.3368 45.4271 26.3368C50.6915 26.3368 54.4601 29.5512 54.4601 36.2009L54.4599 51.9208Z" fill="white"/>
</g>
<defs>
<clipPath id="clip0_8_168">
<rect width="70" height="70" fill="white"/>
</clipPath>
</defs>
</svg>
