<svg width="80" height="80" viewBox="0 0 80 80" fill="none" xmlns="http://www.w3.org/2000/svg">
<path d="M26.9333 66.6669C31.8623 66.8318 36.7743 66.007 41.3791 64.2412C45.9839 62.4754 50.188 59.8045 53.743 56.3863C57.2979 52.968 60.1316 48.8719 62.0766 44.3398C64.0215 39.8078 65.0382 34.9319 65.0667 30.0002C67.3255 27.2049 69.0028 23.9863 70 20.5336C70.0744 20.2608 70.0684 19.9723 69.9827 19.7028C69.897 19.4333 69.7352 19.1944 69.5168 19.0148C69.2984 18.8351 69.0327 18.7225 68.7518 18.6903C68.4709 18.6582 68.1866 18.7079 67.9333 18.8336C66.7516 19.4024 65.4212 19.5862 64.1295 19.3589C62.8378 19.1317 61.6499 18.5049 60.7333 17.5669C59.5631 16.2855 58.1477 15.252 56.5708 14.5277C54.9939 13.8033 53.2877 13.4029 51.5532 13.35C49.8187 13.2972 48.0912 13.593 46.4731 14.22C44.8551 14.847 43.3793 15.7924 42.1333 17.0002C40.4273 18.6524 39.1777 20.7179 38.506 22.9958C37.8343 25.2738 37.7633 27.6867 38.3 30.0002C27.1333 30.6669 19.4666 25.3669 13.3333 18.1002C13.1491 17.8916 12.908 17.7411 12.6397 17.6671C12.3713 17.5932 12.0872 17.599 11.8221 17.6838C11.5569 17.7687 11.3222 17.9289 11.1467 18.1449C10.9711 18.3609 10.8622 18.6234 10.8333 18.9002C9.66488 25.3816 10.5077 32.0654 13.2487 38.0538C15.9897 44.0422 20.4975 49.0485 26.1666 52.4002C22.3654 56.7596 17.0273 59.4824 11.2666 60.0002C10.958 60.0514 10.6731 60.1978 10.4518 60.4189C10.2305 60.64 10.0839 60.9248 10.0325 61.2334C9.98103 61.542 10.0274 61.8589 10.165 62.1399C10.3026 62.4208 10.5246 62.6517 10.8 62.8002C15.8117 65.3048 21.3307 66.6275 26.9333 66.6669Z" fill="white"/>
</svg>
