<svg width="76" height="76" viewBox="0 0 76 76" fill="none" xmlns="http://www.w3.org/2000/svg">
<path d="M38 53.5557C46.591 53.5557 53.5556 46.5911 53.5556 38.0001C53.5556 29.409 46.591 22.4446 38 22.4446C29.4089 22.4446 22.4445 29.409 22.4445 38.0001C22.4445 46.5911 29.4089 53.5557 38 53.5557Z" stroke="white" stroke-width="5" stroke-linecap="round" stroke-linejoin="round"/>
<path d="M3 53.5556V22.4444C3 11.7056 11.7056 3 22.4444 3H53.5556C64.2943 3 73 11.7056 73 22.4444V53.5556C73 64.2943 64.2943 73 53.5556 73H22.4444C11.7056 73 3 64.2943 3 53.5556Z" stroke="white" stroke-width="5"/>
<path d="M59.3889 16.6494L59.4278 16.6062" stroke="white" stroke-width="5" stroke-linecap="round" stroke-linejoin="round"/>
</svg>
